HIERARCHY
ROOT locator2
{
  OFFSET 53.6172 30.1899 0.816905
  CHANNELS 6 Xposition Yposition Zposition Zrotation Xrotation Yrotation
  JOINT koshi
  {
    OFFSET 0 0 0
    CHANNELS 6 Xposition Yposition Zposition Zrotation Xrotation Yrotation
    JOINT sippo01
    {
      OFFSET 0 42.8363 -0.548134
      CHANNELS 6 Xposition Yposition Zposition Zrotation Xrotation Yrotation
      JOINT sippo02
      {
        OFFSET 0 44.0461 -3.28882
        CHANNELS 6 Xposition Yposition Zposition Zrotation Xrotation Yrotation
        JOINT sippo03
        {
          OFFSET 0 34.1929 -2.46662
          CHANNELS 6 Xposition Yposition Zposition Zrotation Xrotation Yrotation
          JOINT sippo04
          {
            OFFSET 0 30.0959 -1.75404
            CHANNELS 6 Xposition Yposition Zposition Zrotation Xrotation Yrotation
            JOINT sippo05
            {
              OFFSET 0 28.3637 -1.75404
              CHANNELS 6 Xposition Yposition Zposition Zrotation Xrotation Yrotation
              JOINT sippo06
              {
                OFFSET 0 31.6071 -3.2043
                CHANNELS 6 Xposition Yposition Zposition Zrotation Xrotation Yrotation
                End Site
                {
                  OFFSET 0 0 0
                }
              }
            }
          }
        }
      }
    }
    JOINT R_momo
    {
      OFFSET -27.891 13.5892 3.92723
      CHANNELS 6 Xposition Yposition Zposition Zrotation Xrotation Yrotation
      JOINT R_hiza
      {
        OFFSET 0 28.01 1.8232
        CHANNELS 6 Xposition Yposition Zposition Zrotation Xrotation Yrotation
        JOINT R_ashi
        {
          OFFSET 0 24.3992 -2.49174
          CHANNELS 6 Xposition Yposition Zposition Zrotation Xrotation Yrotation
          End Site
          {
            OFFSET 0 0 0
          }
        }
      }
    }
    JOINT L_momo
    {
      OFFSET 27.891 13.5892 3.92714
      CHANNELS 6 Xposition Yposition Zposition Zrotation Xrotation Yrotation
      JOINT L_hiza
      {
        OFFSET 0 28.0098 1.82319
        CHANNELS 6 Xposition Yposition Zposition Zrotation Xrotation Yrotation
        JOINT L_ashi
        {
          OFFSET 0 24.3992 -2.49171
          CHANNELS 6 Xposition Yposition Zposition Zrotation Xrotation Yrotation
          End Site
          {
            OFFSET 0 0 0
          }
        }
      }
    }
  }
  JOINT hara
  {
    OFFSET 0 2.15392 0
    CHANNELS 6 Xposition Yposition Zposition Zrotation Xrotation Yrotation
    JOINT mune
    {
      OFFSET 0 62.0609 0.472494
      CHANNELS 6 Xposition Yposition Zposition Zrotation Xrotation Yrotation
      JOINT R_kata
      {
        OFFSET 22.6695 9.65301 -5.3622
        CHANNELS 6 Xposition Yposition Zposition Zrotation Xrotation Yrotation
        JOINT R_hiji
        {
          OFFSET 0 25.813 1.69098
          CHANNELS 6 Xposition Yposition Zposition Zrotation Xrotation Yrotation
          JOINT R_te
          {
            OFFSET 0 28.5636 -0.966307
            CHANNELS 6 Xposition Yposition Zposition Zrotation Xrotation Yrotation
            End Site
            {
              OFFSET 0 0 0
            }
          }
        }
      }
      JOINT L_kata
      {
        OFFSET -22.6695 9.65298 -5.3622
        CHANNELS 6 Xposition Yposition Zposition Zrotation Xrotation Yrotation
        JOINT L_hiji
        {
          OFFSET 0 25.813 1.69102
          CHANNELS 6 Xposition Yposition Zposition Zrotation Xrotation Yrotation
          JOINT L_te
          {
            OFFSET 0 28.5636 -0.966295
            CHANNELS 6 Xposition Yposition Zposition Zrotation Xrotation Yrotation
            End Site
            {
              OFFSET 0 0 0
            }
          }
        }
      }
      JOINT kubi
      {
        OFFSET 0 23.1438 -0.944988
        CHANNELS 6 Xposition Yposition Zposition Zrotation Xrotation Yrotation
        JOINT atama
        {
          OFFSET 0 20.8625 4.12737
          CHANNELS 6 Xposition Yposition Zposition Zrotation Xrotation Yrotation
          JOINT ago
          {
            OFFSET 0 7.552 -7.58201
            CHANNELS 6 Xposition Yposition Zposition Zrotation Xrotation Yrotation
            End Site
            {
              OFFSET 0 0 0
            }
          }
        }
      }
    }
  }
}
MOTION
Frames:	8
Frame Time:	0.0333333
441.594 31.3197 151.229 -90 -3.50835e-015 -90 0 0 0 91.4274 -3.94728 -0.00324556 -9.15527e-005 42.8363 -0.548138 -1.98019 -3.83278 6.94794 5.68434e-014 44.0461 -3.28881 -5.98263 11.2118 2.41962 -5.68434e-014 34.1929 -2.46661 -6.15559 14.9621 4.27547 -3.05176e-005 30.0959 -1.75404 -3.53974 16.0833 -5.99929 -6.10352e-005 28.3637 -1.75405 -0.10662 -3.77867 5.26943 -5.68434e-014 31.6072 -3.20432 1.03068 -4.00503 -16.2708 -27.8909 13.5892 3.92723 50.6014 -28.4928 -81.795 0 28.01 1.8232 4.69994 -43.521 -32.4176 -3.05176e-005 24.3992 -2.49174 -154.877 47.3591 -165.154 27.8909 13.5891 3.92714 -113.93 -23.2824 52.0562 0 28.0099 1.82321 -1.66285 -77.1983 1.848 -3.05176e-005 24.3992 -2.4917 140.241 75.7429 175.598 0 2.15393 0 -91.3947 -3.27724 -3.31592 6.10352e-005 62.0609 0.472504 -9.98528e-006 9.99478e-006 1.75758e-007 22.6695 9.65303 -5.36219 -122.479 -17.7692 45.8196 -7.6294e-006 25.813 1.69099 179.642 -65.942 175.351 -3.8147e-005 28.5636 -0.96637 45.9917 26.4459 -117.338 -22.6694 9.65302 -5.36219 160.297 7.32001 -46.6181 0 25.813 1.69101 0.0747052 -66.5451 -0.812346 -3.05176e-005 28.5636 -0.966263 -33.5999 -19.7364 79.3937 -6.10352e-005 23.1438 -0.944984 -0.841049 12.1886 -8.88902 9.15527e-005 20.8625 4.12736 -1.87692 12.4481 -8.20109 6.10352e-005 7.55205 -7.58199 2.38005e-005 -29.411 1.68345e-005 
441.572 31.4582 153.277 -90 -3.50835e-015 -90 0 0 0 90.9021 -3.96555 -0.0649157 -9.15527e-005 42.8363 -0.548138 -1.94286 -4.29923 7.09931 -2.61908e-008 44.0461 -3.28881 -6.24817 11.68 2.21566 -8.60546e-008 34.1929 -2.46661 -7.17763 14.6222 2.93581 -3.11724e-005 30.0959 -1.75404 -4.78902 15.8559 -6.31563 -6.2032e-005 28.3637 -1.75405 -1.25266 -5.22498 5.24225 -1.59488e-006 31.6072 -3.20432 0.524568 -7.09131 -16.5037 -27.8909 13.5892 3.92723 46.7044 -27.045 -80.9223 4.20973e-008 28.01 1.8232 4.20808 -36.5514 -33.5445 -3.03373e-005 24.3992 -2.49174 -154.24 51.4378 -164.515 27.8909 13.5891 3.92714 -116.131 -24.276 50.9941 -2.44475e-009 28.0099 1.82321 -0.915316 -76.8145 0.119117 -3.06992e-005 24.3992 -2.4917 139.866 76.2463 176.375 2.84217e-014 2.15393 0 -89.6599 -4.94046 -2.93768 6.10352e-005 62.0609 0.472504 -9.98528e-006 9.99478e-006 1.01921e-005 22.6695 9.65303 -5.36219 -128.342 -11.3545 47.4968 -6.94192e-006 25.813 1.69099 179.664 -64.3842 176.244 -3.87895e-005 28.5636 -0.966369 43.4216 22.9358 -111.113 -22.6694 9.65302 -5.36219 163.924 10.706 -54.8955 -7.41431e-007 25.813 1.69101 0.184779 -76.0665 -0.130873 -3.09175e-005 28.5636 -0.966263 -15.2456 -14.5768 88.0546 -6.10352e-005 23.1438 -0.944984 -0.299401 11.3906 -7.87152 9.15681e-005 20.8625 4.12736 -0.957681 11.5641 -7.50102 6.08806e-005 7.55205 -7.58199 -1.10044e-005 -29.929 -5.57819e-006 
441.55 31.5939 155.285 -90 -3.50835e-015 -90 0 0 0 90.5939 -3.89398 -0.0766981 -9.15527e-005 42.8363 -0.548138 -1.90602 -4.76103 7.24972 -5.31469e-008 44.0461 -3.28881 -6.51076 12.1402 2.01906 -1.71559e-007 34.1929 -2.46661 -8.17768 14.2856 1.60991 -3.18011e-005 30.0959 -1.75404 -6.0117 15.6267 -6.6353 -6.29637e-005 28.3637 -1.75405 -2.37456 -4.75887 5.2374 -2.81171e-006 31.6072 -3.20432 0.0229803 -10.1174 -16.7856 -27.8909 13.5892 3.92723 43.4016 -26.1398 -78.5281 1.38143e-007 28.01 1.8232 3.98068 -32.5799 -34.2974 -2.99092e-005 24.3992 -2.49174 -152.616 56.4188 -164.217 27.8909 13.5891 3.92714 -112.776 -25.2489 52.8829 -3.15331e-007 28.0099 1.82321 -1.01661 -75.516 1.42474 -3.05188e-005 24.3992 -2.4917 141.122 74.7425 174.479 0 2.15393 -3.55271e-015 -87.6321 -5.86584 -2.61676 6.10352e-005 62.0609 0.472504 3.26262e-008 9.99478e-006 1.01921e-005 22.6695 9.65303 -5.36219 -134.19 -5.91486 45.7147 -6.33607e-006 25.813 1.69099 179.65 -65.7607 177.08 -3.95114e-005 28.5636 -0.966367 41.3987 17.4477 -104.002 -22.6694 9.65302 -5.36219 167.286 13.2037 -63.5607 -1.33122e-006 25.813 1.69101 0.983435 -86.4457 1.23059 -3.17802e-005 28.5636 -0.966264 0.595605 -7.00371 93.4634 -6.10352e-005 23.1438 -0.944984 -0.619768 10.6059 -6.33494 9.16767e-005 20.8625 4.12736 -0.555268 10.5975 -6.03601 6.07277e-005 7.55205 -7.58199 -5.68821e-006 -26.3089 6.38827e-006 
441.528 31.731 157.313 -90 -3.50835e-015 -90 0 0 0 90.5079 -3.78029 -0.0742672 -9.15527e-005 42.8363 -0.548138 -1.8689 -5.22732 7.40219 -8.13912e-008 44.0461 -3.28881 -6.77669 12.603 1.82563 -2.58383e-007 34.1929 -2.46661 -9.18441 13.943 0.259434 -3.2419e-005 30.0959 -1.75404 -7.24404 15.3891 -6.96805 -6.385e-005 28.3637 -1.75405 -3.50622 -4.28705 5.2511 -3.89431e-006 31.6072 -3.20432 -0.486882 -10.3975 -17.1004 -27.8909 13.5892 3.92723 46.7309 -23.7193 -74.2197 -2.61667e-007 28.01 1.8232 3.97305 -33.108 -34.4257 -2.97188e-005 24.3992 -2.49174 -149.949 61.6617 -164.902 27.8909 13.5891 3.92714 -108.939 -26.0377 55.0055 -6.39224e-007 28.0099 1.82321 -1.53887 -74.3886 2.81179 -3.0287e-005 24.3992 -2.4917 142.377 72.696 172.484 0 2.15393 0 -85.7385 -6.42359 -2.20095 6.10352e-005 62.0609 0.472504 -1.17479e-006 9.99478e-006 1.08873e-006 22.6695 9.65303 -5.36219 -139.151 -4.59586 49.8406 -5.99322e-006 25.813 1.69099 179.597 -69.241 177.883 -4.01023e-005 28.5636 -0.966366 39.1002 11.883 -99.4433 -22.6694 9.65302 -5.36219 167.909 16.5035 -68.7364 -1.75636e-006 25.813 1.69101 179.364 -83.0709 -179.818 -3.25486e-005 28.5636 -0.966264 7.90838 2.40693 91.9372 -6.10352e-005 23.1438 -0.944984 -1.04967 9.57575 -4.40478 9.18128e-005 20.8625 4.12736 -0.553271 9.4249 -4.02836 6.05473e-005 7.55205 -7.58199 2.49874e-006 -11.3356 1.03689e-005 
441.506 31.4972 159.359 -90 -3.50835e-015 -90 0 0 0 90.4249 -3.65793 -0.070954 -9.15527e-005 42.8363 -0.548138 -1.8318 -5.69353 7.55525 -1.10646e-007 44.0461 -3.28881 -7.04764 13.0876 1.63665 -3.45783e-007 34.1929 -2.46661 -10.1986 13.5944 -1.11665 -3.30223e-005 30.0959 -1.75404 -8.48446 15.1436 -7.31377 -6.4679e-005 28.3637 -1.75405 -4.64899 -3.80956 5.28399 -4.81597e-006 31.6072 -3.20432 -1.00523 -10.6534 -17.4241 -27.8909 13.5892 3.92723 50.0392 -21.3113 -70.088 -6.90605e-007 28.01 1.8232 4.13877 -37.095 -33.5324 -2.9388e-005 24.3992 -2.49174 -144.099 67.9027 -168.785 27.8909 13.5891 3.92714 -106.502 -26.7392 56.7154 -8.94475e-007 28.0099 1.82321 -1.93413 -73.0631 3.98697 -3.00355e-005 24.3992 -2.4917 143.271 70.9918 170.751 0 2.15393 0 -84.1194 -6.9506 -1.65025 6.10352e-005 62.0609 0.472504 3.26289e-008 9.99478e-006 2.35721e-007 22.6695 9.65303 -5.36219 -144.094 -2.96084 54.2428 -5.54593e-006 25.813 1.69099 179.521 -72.756 178.665 -4.05678e-005 28.5636 -0.966365 37.3411 6.00108 -95.2855 -22.6694 9.65302 -5.36219 168.456 19.853 -73.9878 -2.15231e-006 25.813 1.69101 179.68 -72.7523 179.262 -3.32906e-005 28.5636 -0.966264 15.6045 11.5365 87.9541 -6.10352e-005 23.1438 -0.944984 -0.825193 8.45378 -2.56926 9.18866e-005 20.8625 4.12736 -0.85715 8.33816 -1.84166 6.03375e-005 7.55205 -7.58199 -5.69745e-007 5.78741 1.02187e-005 
441.484 31.268 161.147 -90 -3.50835e-015 -90 0 0 0 90.6754 -3.48875 -0.0243485 -9.15527e-005 42.8363 -0.548138 -1.79518 -6.15509 7.70735 -1.40613e-007 44.0461 -3.28881 -7.37132 15.2788 1.68445 -3.52574e-007 34.1929 -2.46662 -11.1903 13.2506 -2.47686 -3.34507e-005 30.0959 -1.75404 -9.69944 14.8972 -7.66292 -6.51725e-005 28.3637 -1.75405 -5.767 -3.34205 5.33435 -5.21225e-006 31.6072 -3.20431 -1.50056 -8.17529 -17.6733 -27.8909 13.5892 3.92723 53.2095 -18.9105 -66.3495 -1.13956e-006 28.01 1.8232 4.34061 -41.0031 -32.6256 -2.90247e-005 24.3992 -2.49174 -137.08 74.4479 -174.175 27.8909 13.5891 3.92714 -104.085 -27.2308 58.4518 -1.12605e-006 28.0099 1.82321 -2.22039 -71.9465 5.00912 -2.98017e-005 24.3992 -2.4917 143.737 69.4416 169.343 0 2.15393 -3.55271e-015 -82.3685 -7.17768 -1.10404 6.10352e-005 62.0609 0.472504 3.26291e-008 9.99478e-006 1.7415e-007 22.6695 9.65303 -5.36219 -147.271 -1.08509 53.6989 -5.26153e-006 25.813 1.69099 179.41 -76.2026 178.736 -4.10338e-005 28.5636 -0.966365 36.7067 1.14871 -92.2948 -22.6694 9.65302 -5.36219 162.846 23.4861 -74.5353 -2.40016e-006 25.813 1.69101 179.765 -62.6336 178.135 -3.34608e-005 28.5636 -0.966263 24.0628 20.0458 81.3306 -6.10352e-005 23.1438 -0.944984 -0.18469 7.04362 -0.817036 9.19165e-005 20.8625 4.12736 -1.34833 7.17583 0.424034 6.0108e-005 7.55205 -7.58199 -1.08494e-006 8.64444 1.02834e-005 
441.462 31.0364 162.953 -90 -3.50835e-015 -90 0 0 0 90.9117 -3.29996 0.0220383 -9.15527e-005 42.8363 -0.548138 -1.75853 -6.6181 7.86053 -1.71672e-007 44.0461 -3.28881 -7.71629 17.488 1.75967 -3.56494e-007 34.1929 -2.46662 -9.79821 13.0029 -2.75962 -3.30325e-005 30.0959 -1.75404 -8.58153 14.7421 -8.61973 -6.47587e-005 28.3637 -1.75405 -4.60843 -2.88129 5.51864 -4.60171e-006 31.6072 -3.20431 -1.99792 -5.67313 -17.8809 -27.8909 13.5892 3.92723 59.2728 -15.3566 -63.5286 -1.93255e-006 28.01 1.8232 4.76201 -46.9614 -31.3321 -2.87765e-005 24.3992 -2.49174 -121.308 80.2999 171.995 27.8909 13.5891 3.92714 -101.642 -27.5287 60.247 -1.33914e-006 28.0099 1.82321 -2.3849 -70.6324 6.04818 -2.95604e-005 24.3992 -2.4917 143.662 68.1305 168.598 0 2.15393 -3.55271e-015 -82.2314 -6.33535 -0.868008 6.10352e-005 62.0609 0.472504 3.26234e-008 9.99478e-006 3.79036e-007 22.6695 9.65303 -5.36219 -150.433 0.95537 53.3702 -4.94788e-006 25.813 1.69099 179.25 -79.2629 178.76 -4.14198e-005 28.5636 -0.966364 36.386 -3.82177 -89.3743 -22.6694 9.65302 -5.36219 156.812 26.7308 -74.264 -2.6489e-006 25.813 1.69101 179.775 -56.6606 176.921 -3.35467e-005 28.5636 -0.966262 22.5951 29.6916 72.9375 -6.10352e-005 23.1438 -0.944984 0.457565 5.6183 0.985599 9.19408e-005 20.8625 4.12736 -1.74352 6.10015 2.34792 5.98791e-005 7.55205 -7.58199 -8.76754e-007 7.49434 1.02542e-005 
441.581 30.8026 164.777 -90 -3.50835e-015 -90 0 0 0 91.5356 -3.19917 0.089419 -9.15527e-005 42.8363 -0.548138 -1.72215 -7.34068 8.00344 -2.18395e-007 44.0461 -3.28881 -8.07099 19.7168 1.85971 -3.68574e-007 34.1929 -2.46662 -8.37473 12.1249 -3.12371 -3.2676e-005 30.0959 -1.75404 -7.45494 14.5767 -8.0564 -6.41531e-005 28.3637 -1.75405 -3.4395 -2.4139 5.68545 -3.75441e-006 31.6072 -3.20431 -1.40665 -3.14943 -17.9744 -27.8909 13.5892 3.92723 65.6587 -12.5451 -62.0233 -2.6732e-006 28.01 1.8232 5.5946 -54.8119 -29.5699 -2.8407e-005 24.3992 -2.49174 -109.23 83.6101 159.2 27.8909 13.5891 3.92714 -99.1976 -27.6303 62.0826 -1.53115e-006 28.0099 1.82321 -2.53034 -69.3037 6.88009 -2.93412e-005 24.3992 -2.4917 143.843 66.8834 167.362 0 2.15393 3.55271e-015 -82.0939 -5.38483 -0.589528 6.10352e-005 62.0609 0.472504 -9.98528e-006 9.99478e-006 1.01921e-005 22.6695 9.65303 -5.36219 -150.88 2.08848 49.6731 -4.94408e-006 25.813 1.69099 178.958 -82.3527 178.651 -4.17527e-005 28.5636 -0.966364 39.5197 -6.98649 -87.9189 -22.6694 9.65302 -5.36219 142.812 28.5791 -67.7509 -2.72849e-006 25.813 1.69101 179.779 -50.6782 176.078 -3.33734e-005 28.5636 -0.966262 16.1989 42.7558 67.313 -6.10352e-005 23.1438 -0.944984 0.775428 4.09935 2.35686 9.19666e-005 20.8625 4.12736 -2.03937 4.91404 3.91625 5.96935e-005 7.55205 -7.58199 -4.52029e-006 5.38677 1.05893e-005 
